<mxfile host="app.diagrams.net" modified="2024-09-20T11:10:50.319Z" agent="Mozilla/5.0 (Windows NT 10.0; Win64; x64) AppleWebKit/537.36 (KHTML, like Gecko) Chrome/129.0.0.0 Safari/537.36" etag="lOoiXcb1PGbhccVv6rjb" version="24.2.2" type="device">
  <diagram id="C5RBs43oDa-KdzZeNtuy" name="Page-1">
    <mxGraphModel dx="1434" dy="746" grid="1" gridSize="10" guides="1" tooltips="1" connect="1" arrows="1" fold="1" page="1" pageScale="1" pageWidth="827" pageHeight="1169" math="0" shadow="0">
      <root>
        <mxCell id="WIyWlLk6GJQsqaUBKTNV-0" />
        <mxCell id="WIyWlLk6GJQsqaUBKTNV-1" parent="WIyWlLk6GJQsqaUBKTNV-0" />
        <mxCell id="ENu6n3a7ZOMoVXsqburj-3" style="edgeStyle=orthogonalEdgeStyle;rounded=0;orthogonalLoop=1;jettySize=auto;html=1;exitX=0;exitY=0.5;exitDx=0;exitDy=0;entryX=0.917;entryY=0.017;entryDx=0;entryDy=0;entryPerimeter=0;" edge="1" parent="WIyWlLk6GJQsqaUBKTNV-1" source="ENu6n3a7ZOMoVXsqburj-0">
          <mxGeometry relative="1" as="geometry">
            <mxPoint x="159.99999999999997" y="179.99999999999997" as="targetPoint" />
            <mxPoint x="279.96" y="138.98" as="sourcePoint" />
            <Array as="points">
              <mxPoint x="330" y="139" />
              <mxPoint x="160" y="139" />
            </Array>
          </mxGeometry>
        </mxCell>
        <mxCell id="ENu6n3a7ZOMoVXsqburj-0" value="Животные" style="rounded=0;whiteSpace=wrap;html=1;fontStyle=1;fontSize=17;" vertex="1" parent="WIyWlLk6GJQsqaUBKTNV-1">
          <mxGeometry x="330" y="110" width="120" height="60" as="geometry" />
        </mxCell>
        <mxCell id="ENu6n3a7ZOMoVXsqburj-11" style="edgeStyle=orthogonalEdgeStyle;rounded=0;orthogonalLoop=1;jettySize=auto;html=1;entryX=0.5;entryY=0;entryDx=0;entryDy=0;" edge="1" parent="WIyWlLk6GJQsqaUBKTNV-1" source="ENu6n3a7ZOMoVXsqburj-1" target="ENu6n3a7ZOMoVXsqburj-5">
          <mxGeometry relative="1" as="geometry" />
        </mxCell>
        <mxCell id="ENu6n3a7ZOMoVXsqburj-12" style="edgeStyle=orthogonalEdgeStyle;rounded=0;orthogonalLoop=1;jettySize=auto;html=1;exitX=1;exitY=0.5;exitDx=0;exitDy=0;entryX=0.5;entryY=0;entryDx=0;entryDy=0;" edge="1" parent="WIyWlLk6GJQsqaUBKTNV-1" source="ENu6n3a7ZOMoVXsqburj-1" target="ENu6n3a7ZOMoVXsqburj-7">
          <mxGeometry relative="1" as="geometry" />
        </mxCell>
        <mxCell id="ENu6n3a7ZOMoVXsqburj-13" style="edgeStyle=orthogonalEdgeStyle;rounded=0;orthogonalLoop=1;jettySize=auto;html=1;entryX=0.5;entryY=0;entryDx=0;entryDy=0;" edge="1" parent="WIyWlLk6GJQsqaUBKTNV-1" source="ENu6n3a7ZOMoVXsqburj-1" target="ENu6n3a7ZOMoVXsqburj-6">
          <mxGeometry relative="1" as="geometry" />
        </mxCell>
        <mxCell id="ENu6n3a7ZOMoVXsqburj-1" value="&lt;span style=&quot;font-size: 15px; line-height: 107%;&quot;&gt;Домашние животные&lt;/span&gt;" style="rounded=0;whiteSpace=wrap;html=1;fontSize=15;" vertex="1" parent="WIyWlLk6GJQsqaUBKTNV-1">
          <mxGeometry x="100" y="180" width="120" height="60" as="geometry" />
        </mxCell>
        <mxCell id="ENu6n3a7ZOMoVXsqburj-14" style="edgeStyle=orthogonalEdgeStyle;rounded=0;orthogonalLoop=1;jettySize=auto;html=1;exitX=0;exitY=0.5;exitDx=0;exitDy=0;entryX=0.5;entryY=0;entryDx=0;entryDy=0;" edge="1" parent="WIyWlLk6GJQsqaUBKTNV-1" source="ENu6n3a7ZOMoVXsqburj-2" target="ENu6n3a7ZOMoVXsqburj-8">
          <mxGeometry relative="1" as="geometry" />
        </mxCell>
        <mxCell id="ENu6n3a7ZOMoVXsqburj-15" style="edgeStyle=orthogonalEdgeStyle;rounded=0;orthogonalLoop=1;jettySize=auto;html=1;entryX=0.5;entryY=0;entryDx=0;entryDy=0;" edge="1" parent="WIyWlLk6GJQsqaUBKTNV-1" source="ENu6n3a7ZOMoVXsqburj-2" target="ENu6n3a7ZOMoVXsqburj-9">
          <mxGeometry relative="1" as="geometry" />
        </mxCell>
        <mxCell id="ENu6n3a7ZOMoVXsqburj-16" style="edgeStyle=orthogonalEdgeStyle;rounded=0;orthogonalLoop=1;jettySize=auto;html=1;exitX=1;exitY=0.5;exitDx=0;exitDy=0;entryX=0.5;entryY=0;entryDx=0;entryDy=0;" edge="1" parent="WIyWlLk6GJQsqaUBKTNV-1" source="ENu6n3a7ZOMoVXsqburj-2" target="ENu6n3a7ZOMoVXsqburj-10">
          <mxGeometry relative="1" as="geometry" />
        </mxCell>
        <mxCell id="ENu6n3a7ZOMoVXsqburj-2" value="&lt;span style=&quot;font-size: 15px;&quot;&gt;Вьючные животные&lt;/span&gt;" style="rounded=0;whiteSpace=wrap;html=1;fontSize=15;" vertex="1" parent="WIyWlLk6GJQsqaUBKTNV-1">
          <mxGeometry x="500" y="180" width="120" height="60" as="geometry" />
        </mxCell>
        <mxCell id="ENu6n3a7ZOMoVXsqburj-4" style="edgeStyle=orthogonalEdgeStyle;rounded=0;orthogonalLoop=1;jettySize=auto;html=1;exitX=1;exitY=0.5;exitDx=0;exitDy=0;entryX=0.475;entryY=-0.1;entryDx=0;entryDy=0;entryPerimeter=0;" edge="1" parent="WIyWlLk6GJQsqaUBKTNV-1" source="ENu6n3a7ZOMoVXsqburj-0" target="ENu6n3a7ZOMoVXsqburj-2">
          <mxGeometry relative="1" as="geometry" />
        </mxCell>
        <mxCell id="ENu6n3a7ZOMoVXsqburj-5" value="Собаки" style="rounded=0;whiteSpace=wrap;html=1;" vertex="1" parent="WIyWlLk6GJQsqaUBKTNV-1">
          <mxGeometry x="10" y="280" width="80" height="40" as="geometry" />
        </mxCell>
        <mxCell id="ENu6n3a7ZOMoVXsqburj-6" value="Кошки" style="rounded=0;whiteSpace=wrap;html=1;" vertex="1" parent="WIyWlLk6GJQsqaUBKTNV-1">
          <mxGeometry x="120" y="280" width="80" height="40" as="geometry" />
        </mxCell>
        <mxCell id="ENu6n3a7ZOMoVXsqburj-7" value="Хомяки" style="rounded=0;whiteSpace=wrap;html=1;" vertex="1" parent="WIyWlLk6GJQsqaUBKTNV-1">
          <mxGeometry x="240" y="280" width="80" height="40" as="geometry" />
        </mxCell>
        <mxCell id="ENu6n3a7ZOMoVXsqburj-8" value="Лошади" style="rounded=0;whiteSpace=wrap;html=1;" vertex="1" parent="WIyWlLk6GJQsqaUBKTNV-1">
          <mxGeometry x="400" y="280" width="80" height="40" as="geometry" />
        </mxCell>
        <mxCell id="ENu6n3a7ZOMoVXsqburj-9" value="Верблюды" style="rounded=0;whiteSpace=wrap;html=1;" vertex="1" parent="WIyWlLk6GJQsqaUBKTNV-1">
          <mxGeometry x="520" y="280" width="80" height="40" as="geometry" />
        </mxCell>
        <mxCell id="ENu6n3a7ZOMoVXsqburj-10" value="Ослы" style="rounded=0;whiteSpace=wrap;html=1;" vertex="1" parent="WIyWlLk6GJQsqaUBKTNV-1">
          <mxGeometry x="640" y="280" width="80" height="40" as="geometry" />
        </mxCell>
        <mxCell id="ENu6n3a7ZOMoVXsqburj-17" value="&lt;font style=&quot;font-size: 24px;&quot;&gt;Диаграмма классов&lt;/font&gt;" style="text;html=1;align=center;verticalAlign=middle;whiteSpace=wrap;rounded=0;fontStyle=1" vertex="1" parent="WIyWlLk6GJQsqaUBKTNV-1">
          <mxGeometry x="227" y="30" width="326" height="30" as="geometry" />
        </mxCell>
      </root>
    </mxGraphModel>
  </diagram>
</mxfile>
